<svg xmlns="http://www.w3.org/2000/svg"  xmlns:xlink="http://www.w3.org/1999/xlink"  viewBox="0 0 96 20" class="h-full text-white"><g fill="currentColor" fill-rule="nonzero"><path d="M15.334 12.986V5.409l2.631-1.237L8.981 0 6.374 1.2 9.21 2.535 2.985 5.527 6.09 6.962l6.016-3.065 3.217 1.515-3.07 1.414v7.788L9.02 16.323V12.61L2.966 9.59l.02-4.06L0 4.143v10.793l2.938 1.65.016-3.51 6.066 3.25V20L18 14.968v-3.39zM26 5.13V3.211h9.293V5.13h-3.577v9.968h-2.14V5.13zM38.499 15.098H36.46V3h2.056v5.106c.518-.78 1.487-1.285 2.674-1.285 2.039 0 3.109 1.252 3.109 3.333v4.944h-2.04v-4.472c0-1.35-.685-2-1.72-2-1.288 0-2.04.878-2.04 2.081zM49.829 15.309c-2.457 0-4.179-1.74-4.179-4.228 0-2.52 1.688-4.26 4.112-4.26 2.473 0 4.044 1.61 4.044 4.114v.601l-6.217.017c.15 1.414.92 2.13 2.273 2.13 1.12 0 1.855-.423 2.09-1.187h1.888c-.351 1.756-1.855 2.813-4.012 2.813m-.05-6.862c-1.204 0-1.94.634-2.14 1.838h4.145c0-1.106-.785-1.838-2.006-1.838M57.31 15.098h-2.039V7.065h1.872l.167.943c.418-.667 1.254-1.187 2.44-1.187 1.254 0 2.123.602 2.557 1.529.418-.927 1.388-1.529 2.641-1.529 2.006 0 3.109 1.17 3.109 3.024v5.252h-2.022v-4.731c0-1.155-.635-1.756-1.605-1.756-.986 0-1.738.617-1.738 1.935v4.553h-2.04V10.35c0-1.123-.617-1.724-1.587-1.724s-1.755.618-1.755 1.919zM72.348 15.309c-1.755 0-2.824-.992-2.824-2.504 0-1.48 1.103-2.407 3.058-2.553l2.474-.179v-.179c0-1.09-.669-1.528-1.705-1.528-1.203 0-1.872.488-1.872 1.333h-1.738c0-1.74 1.47-2.878 3.71-2.878 2.223 0 3.594 1.17 3.594 3.398v4.879h-1.788l-.15-1.187c-.352.829-1.472 1.398-2.759 1.398m.669-1.496c1.253 0 2.056-.732 2.056-1.968v-.422l-1.722.13c-1.27.114-1.755.52-1.755 1.17 0 .732.502 1.09 1.42 1.09M81.574 15.098h-2.039V8.723h-1.587V7.066h1.587V4.56h2.039v2.504h1.605v1.658h-1.605zM85.299 5.455c-.702 0-1.254-.536-1.254-1.203s.552-1.187 1.254-1.187c.668 0 1.22.52 1.22 1.187s-.552 1.203-1.22 1.203m-1.02 9.643V7.065h2.039v8.032zM87.773 11.065c0-2.488 1.688-4.244 4.129-4.244 2.256 0 3.793 1.22 4.011 3.155h-2.039c-.234-.911-.92-1.383-1.889-1.383-1.304 0-2.173.96-2.173 2.472s.803 2.455 2.106 2.455c1.02 0 1.738-.488 1.956-1.366h2.055c-.25 1.87-1.855 3.155-4.011 3.155-2.507 0-4.145-1.691-4.145-4.244"></path></g></svg>