<svg xmlns="http://www.w3.org/2000/svg"  xmlns:xlink="http://www.w3.org/1999/xlink"  viewBox="0 0 18 20" class="!overflow-visible w-full" fill="currentColor" stroke="currentColor"><g fill="none" fill-rule="evenodd" stroke="currentColor" stroke-linecap="round" stroke-linejoin="round"><path d="M17.209 13.605V6.401a1.8 1.8 0 0 0-.9-1.558l-6.304-3.602a1.8 1.8 0 0 0-1.801 0L1.9 4.843A1.8 1.8 0 0 0 1 6.401v7.204a1.8 1.8 0 0 0 .9 1.558l6.304 3.602a1.8 1.8 0 0 0 1.801 0l6.304-3.602a1.8 1.8 0 0 0 .9-1.558"></path><path d="m1.242 5.465 7.861 4.548 7.861-4.548M9.104 19.08v-9.077"></path></g></svg>