<svg xmlns="http://www.w3.org/2000/svg"  xmlns:xlink="http://www.w3.org/1999/xlink"  fill="none" viewBox="0 0 26 26" class="w-6 text-analyst-blue flex-shrink-0"><path fill="currentColor" d="M13 24.375a11.375 11.375 0 1 1 0-22.75 11.375 11.375 0 0 1 0 22.75M13 26a13 13 0 1 0 0-26 13 13 0 0 0 0 26"></path><path fill="currentColor" d="m18.064 8.283-.034.034-5.865 6.887-3.535-3.26a1.33 1.33 0 0 0-.886-.312 1.32 1.32 0 0 0-.873.341 1.12 1.12 0 0 0-.37.805c-.007.303.115.595.339.817l4.469 4.12c.12.11.263.197.421.256a1.36 1.36 0 0 0 .99-.017c.155-.064.295-.156.41-.27l6.743-7.767c.23-.222.355-.519.349-.825a1.13 1.13 0 0 0-.38-.814 1.33 1.33 0 0 0-.89-.334c-.333.001-.652.123-.888.339"></path></svg>